<?xml version="1.0" encoding="UTF-8" standalone="no"?>
<!-- Created with Inkscape (http://www.inkscape.org/) -->

<svg
   xmlns:dc="http://purl.org/dc/elements/1.1/"
   xmlns:cc="http://creativecommons.org/ns#"
   xmlns:rdf="http://www.w3.org/1999/02/22-rdf-syntax-ns#"
   xmlns:svg="http://www.w3.org/2000/svg"
   xmlns="http://www.w3.org/2000/svg"
   xmlns:sodipodi="http://sodipodi.sourceforge.net/DTD/sodipodi-0.dtd"
   xmlns:inkscape="http://www.inkscape.org/namespaces/inkscape"
   width="16"
   height="16"
   id="svg2"
   version="1.1"
   inkscape:version="0.48.4 r9939"
   sodipodi:docname="timetracktool_logo.svg">
  <defs
     id="defs4" />
  <sodipodi:namedview
     id="base"
     pagecolor="#ffffff"
     bordercolor="#666666"
     borderopacity="1.0"
     inkscape:pageopacity="0.0"
     inkscape:pageshadow="2"
     inkscape:zoom="0.70710678"
     inkscape:cx="-59.392737"
     inkscape:cy="433.23621"
     inkscape:document-units="px"
     inkscape:current-layer="layer1"
     showgrid="false"
     inkscape:object-nodes="true"
     inkscape:snap-object-midpoints="true"
     inkscape:snap-center="false"
     inkscape:window-width="1680"
     inkscape:window-height="1028"
     inkscape:window-x="1592"
     inkscape:window-y="-8"
     inkscape:window-maximized="1"
     fit-margin-top="0"
     fit-margin-left="0"
     fit-margin-right="0"
     fit-margin-bottom="0" />
  <metadata
     id="metadata7">
    <rdf:RDF>
      <cc:Work
         rdf:about="">
        <dc:format>image/svg+xml</dc:format>
        <dc:type
           rdf:resource="http://purl.org/dc/dcmitype/StillImage" />
        <dc:title></dc:title>
      </cc:Work>
    </rdf:RDF>
  </metadata>
  <g
     inkscape:label="Ebene 1"
     inkscape:groupmode="layer"
     id="layer1"
     transform="translate(-100.32139,-325.65436)">
    <path
       transform="translate(101.11199,361.71681)"
       d="m -69.340656,10.674603 c 0,1.91601 -1.553233,3.469243 -3.469242,3.469243 -1.91601,0 -3.469243,-1.553233 -3.469243,-3.469243 0,-1.9160093 1.553233,-3.4692421 3.469243,-3.4692421 1.916009,0 3.469242,1.5532328 3.469242,3.4692421 z"
       sodipodi:ry="3.4692426"
       sodipodi:rx="3.4692426"
       sodipodi:cy="10.674603"
       sodipodi:cx="-72.809898"
       id="path4198"
       style="fill:none;stroke:#404040;stroke-width:1;stroke-linecap:round;stroke-linejoin:round;stroke-miterlimit:4;stroke-opacity:1;stroke-dasharray:none;stroke-dashoffset:0"
       sodipodi:type="arc" />
    <path
       inkscape:connector-curvature="0"
       id="path3988"
       d="m -37.625,-315.11611 c 0,50.26042 0,100.52084 0,150.78125 212.25,0 424.5,0 636.75,0 0,-50.92708 0,-101.85416 0,-152.78125 -212.25,0 -424.5,0 -636.75,0 l 0,1 0,1 z"
       style="fill:#ffffff;fill-opacity:1;stroke:none" />
    <g
       id="g4109"
       transform="translate(-3e-6,-410.30363)"
       inkscape:export-filename="C:\Users\Stephan\Desktop\TTT\ttt_logo.png"
       inkscape:export-xdpi="63.691265"
       inkscape:export-ydpi="63.691265">
      <path
         transform="matrix(7.8868837,0,0,7.8868837,-631.61209,-2631.1633)"
         d="m 90.375,355.11218 c 0,2.96853 -2.406469,5.375 -5.375,5.375 -2.968531,0 -5.375,-2.40647 -5.375,-5.375 0,-2.96853 2.406469,-5.375 5.375,-5.375 2.968531,0 5.375,2.40647 5.375,5.375 z"
         sodipodi:ry="5.375"
         sodipodi:rx="5.375"
         sodipodi:cy="355.11218"
         sodipodi:cx="85"
         id="path4014"
         style="fill:#001934;fill-opacity:1;stroke:none"
         sodipodi:type="arc" />
      <g
         transform="matrix(4.2392,0,0,4.2392,292.1472,-358.08751)"
         id="g4065">
        <path
           style="font-size:medium;font-style:normal;font-variant:normal;font-weight:normal;font-stretch:normal;text-indent:0;text-align:start;text-decoration:none;line-height:normal;letter-spacing:normal;word-spacing:normal;text-transform:none;direction:ltr;block-progression:tb;writing-mode:lr-tb;text-anchor:start;baseline-shift:baseline;color:#000000;fill:#ffffff;fill-opacity:1;stroke:none;stroke-width:1;marker:none;visibility:visible;display:inline;overflow:visible;enable-background:accumulate;font-family:Sans;-inkscape-font-specification:Sans"
           d="m -59.76934,118.60768 c -3.238751,0 -5.875,2.63625 -5.875,5.875 0,3.23875 2.636249,5.875 5.875,5.875 3.238751,0 5.875,-2.63625 5.875,-5.875 0,-3.23875 -2.636249,-5.875 -5.875,-5.875 z m 0,1 c 2.69831,0 4.875,2.17669 4.875,4.875 0,2.69831 -2.17669,4.875 -4.875,4.875 -2.69831,0 -4.875,-2.17669 -4.875,-4.875 0,-2.69831 2.17669,-4.875 4.875,-4.875 z"
           id="path4018"
           inkscape:connector-curvature="0" />
        <path
           style="font-size:medium;font-style:normal;font-variant:normal;font-weight:normal;font-stretch:normal;text-indent:0;text-align:start;text-decoration:none;line-height:normal;letter-spacing:normal;word-spacing:normal;text-transform:none;direction:ltr;block-progression:tb;writing-mode:lr-tb;text-anchor:start;baseline-shift:baseline;color:#000000;fill:#ffffff;fill-opacity:1;stroke:none;stroke-width:1;marker:none;visibility:visible;display:inline;overflow:visible;enable-background:accumulate;font-family:Sans;-inkscape-font-specification:Sans"
           d="M -62.25,121.65625 A 0.50005,0.50005 0 0 0 -62.4375,122.5 l 2.3125,2.3125 a 0.50005,0.50005 0 0 0 0.71875,0 l 1.65625,-1.65625 a 0.50005,0.50005 0 1 0 -0.6875,-0.71875 l -1.3125,1.3125 -1.96875,-1.9375 A 0.50005,0.50005 0 0 0 -62.25,121.65625 z"
           id="path4020"
           inkscape:connector-curvature="0" />
        <path
           style="font-size:medium;font-style:normal;font-variant:normal;font-weight:normal;font-stretch:normal;text-indent:0;text-align:start;text-decoration:none;line-height:normal;letter-spacing:normal;word-spacing:normal;text-transform:none;direction:ltr;block-progression:tb;writing-mode:lr-tb;text-anchor:start;baseline-shift:baseline;color:#000000;fill:#ffffff;fill-opacity:1;stroke:none;stroke-width:1.5;marker:none;visibility:visible;display:inline;overflow:visible;enable-background:accumulate;font-family:Sans;-inkscape-font-specification:Sans"
           d="m -61.15625,115.96875 a 0.75405803,0.75405803 0 1 0 0.15625,1.5 l 2.46875,0 a 0.750075,0.750075 0 1 0 0,-1.5 l -2.46875,0 a 0.750075,0.750075 0 0 0 -0.15625,0 z"
           id="path4022"
           inkscape:connector-curvature="0" />
        <path
           inkscape:connector-curvature="0"
           style="font-size:medium;font-style:normal;font-variant:normal;font-weight:normal;font-stretch:normal;text-indent:0;text-align:start;text-decoration:none;line-height:normal;letter-spacing:normal;word-spacing:normal;text-transform:none;direction:ltr;block-progression:tb;writing-mode:lr-tb;text-anchor:start;baseline-shift:baseline;color:#000000;fill:#ffffff;fill-opacity:1;stroke:none;stroke-width:2;marker:none;visibility:visible;display:inline;overflow:visible;enable-background:accumulate;font-family:Sans;-inkscape-font-specification:Sans"
           d="m -55.43448,118.99726 a 1.0001,1.0001 0 0 0 -0.59375,0.3125 l -0.0312,0.0312 c 0.53794,0.38989 1.01404,0.87011 1.40625,1.40625 l 0.0312,-0.0312 a 1.0001,1.0001 0 0 0 -0.71875,-1.71875 1.0001,1.0001 0 0 0 -0.0937,0 z"
           id="path4024" />
        <path
           inkscape:connector-curvature="0"
           style="font-size:medium;font-style:normal;font-variant:normal;font-weight:normal;font-stretch:normal;text-indent:0;text-align:start;text-decoration:none;line-height:normal;letter-spacing:normal;word-spacing:normal;text-transform:none;direction:ltr;block-progression:tb;writing-mode:lr-tb;text-anchor:start;baseline-shift:baseline;color:#000000;fill:#ffffff;fill-opacity:1;stroke:none;stroke-width:2;marker:none;visibility:visible;display:inline;overflow:visible;enable-background:accumulate;font-family:Sans;-inkscape-font-specification:Sans"
           d="m -64.40323,118.99726 a 1.0001,1.0001 0 0 0 -0.53125,1.71875 l 0.0312,0.0312 c 0.39609,-0.54472 0.89155,-1.01175 1.4375,-1.40625 l -0.0312,-0.0312 a 1.0001,1.0001 0 0 0 -0.71875,-0.3125 1.0001,1.0001 0 0 0 -0.1875,0 z"
           id="path4026" />
        <path
           inkscape:connector-curvature="0"
           style="font-size:medium;font-style:normal;font-variant:normal;font-weight:normal;font-stretch:normal;text-indent:0;text-align:start;text-decoration:none;line-height:normal;letter-spacing:normal;word-spacing:normal;text-transform:none;direction:ltr;block-progression:tb;writing-mode:lr-tb;text-anchor:start;baseline-shift:baseline;color:#000000;fill:#ffffff;fill-opacity:1;stroke:none;stroke-width:1.5;marker:none;visibility:visible;display:inline;overflow:visible;enable-background:accumulate;font-family:Sans;-inkscape-font-specification:Sans"
           d="m -59.90323,116.05976 a 0.750075,0.750075 0 0 0 -0.625,0.75 l 0,1.375 c 0.25302,-0.0307 0.48869,-0.0625 0.75,-0.0625 0.2511,0 0.50652,0.003 0.75,0.0312 l 0,-1.34375 a 0.750075,0.750075 0 0 0 -0.8125,-0.75 0.750075,0.750075 0 0 0 -0.0625,0 z"
           id="path4028" />
      </g>
    </g>
    <path
       style="fill:#001934;fill-opacity:1;stroke:none"
       d="m -37.625,-105.8125 c 0,50.260417 0,100.5208333 0,150.78125 212.25,0 424.5,0 636.75,0 0,-50.9270833 0,-101.854167 0,-152.78125 -212.25,0 -424.5,0 -636.75,0 l 0,1 0,1 z"
       id="rect3952"
       inkscape:connector-curvature="0" />
    <path
       sodipodi:type="arc"
       style="fill:#434343;fill-opacity:1;stroke:none"
       id="path3858"
       sodipodi:cx="85"
       sodipodi:cy="355.11218"
       sodipodi:rx="5.375"
       sodipodi:ry="5.375"
       d="m 90.375,355.11218 c 0,2.96853 -2.406469,5.375 -5.375,5.375 -2.968531,0 -5.375,-2.40647 -5.375,-5.375 0,-2.96853 2.406469,-5.375 5.375,-5.375 2.968531,0 5.375,2.40647 5.375,5.375 z"
       transform="matrix(1.1802326,0,0,1.1802326,-19.08911,-84.267352)" />
    <path
       transform="matrix(1.8604651,0,0,1.8604651,-76.908874,-325.70396)"
       d="m 90.375,355.11218 c 0,2.96853 -2.406469,5.375 -5.375,5.375 -2.968531,0 -5.375,-2.40647 -5.375,-5.375 0,-2.96853 2.406469,-5.375 5.375,-5.375 2.968531,0 5.375,2.40647 5.375,5.375 z"
       sodipodi:ry="5.375"
       sodipodi:rx="5.375"
       sodipodi:cy="355.11218"
       sodipodi:cx="85"
       id="path3876"
       style="fill:#001934;fill-opacity:1;stroke:none"
       sodipodi:type="arc" />
    <path
       transform="matrix(1.1802326,0,0,1.1802326,8.0016192,-84.267352)"
       d="m 90.375,355.11218 c 0,2.96853 -2.406469,5.375 -5.375,5.375 -2.968531,0 -5.375,-2.40647 -5.375,-5.375 0,-2.96853 2.406469,-5.375 5.375,-5.375 2.968531,0 5.375,2.40647 5.375,5.375 z"
       sodipodi:ry="5.375"
       sodipodi:rx="5.375"
       sodipodi:cy="355.11218"
       sodipodi:cx="85"
       id="path3812-7"
       style="fill:#434343;fill-opacity:1;stroke:none"
       sodipodi:type="arc" />
    <rect
       style="fill:#595959;fill-opacity:1;stroke:none"
       id="rect2985"
       width="16"
       height="16"
       x="100.32139"
       y="325.65436" />
    <g
       id="g3824"
       transform="translate(-1.7553711e-6,0.1222606)">
      <path
         transform="translate(23.32139,-20.264578)"
         d="m 90.375,355.11218 c 0,2.96853 -2.406469,5.375 -5.375,5.375 -2.968531,0 -5.375,-2.40647 -5.375,-5.375 0,-2.96853 2.406469,-5.375 5.375,-5.375 2.968531,0 5.375,2.40647 5.375,5.375 z"
         sodipodi:ry="5.375"
         sodipodi:rx="5.375"
         sodipodi:cy="355.11218"
         sodipodi:cx="85"
         id="path2987"
         style="fill:none;stroke:#ffffff;stroke-width:1;stroke-miterlimit:4;stroke-opacity:1;stroke-dasharray:none"
         sodipodi:type="arc" />
      <path
         inkscape:transform-center-y="-1.361385"
         inkscape:transform-center-x="0.11827"
         sodipodi:nodetypes="ccc"
         inkscape:connector-curvature="0"
         id="path3772"
         d="m 106.00486,332.53107 2.31653,2.31653 1.67375,-1.67375"
         style="fill:none;stroke:#ffffff;stroke-width:1;stroke-linecap:round;stroke-linejoin:round;stroke-miterlimit:4;stroke-opacity:1;stroke-dasharray:none" />
      <path
         inkscape:connector-curvature="0"
         id="path3776"
         d="m 107.0838,327.09159 2.47519,0"
         style="fill:none;stroke:#ffffff;stroke-width:1.5;stroke-linecap:round;stroke-linejoin:round;stroke-miterlimit:4;stroke-opacity:1;stroke-dasharray:none" />
      <path
         id="path3792"
         d="m 112.65625,329.375 a 1.0001,1.0001 0 0 0 -0.59375,0.3125 l -0.0312,0.0312 c 0.53794,0.38989 1.01404,0.87011 1.40625,1.40625 l 0.0312,-0.0312 A 1.0001,1.0001 0 0 0 112.75,329.375 a 1.0001,1.0001 0 0 0 -0.0937,0 z"
         style="font-size:medium;font-style:normal;font-variant:normal;font-weight:normal;font-stretch:normal;text-indent:0;text-align:start;text-decoration:none;line-height:normal;letter-spacing:normal;word-spacing:normal;text-transform:none;direction:ltr;block-progression:tb;writing-mode:lr-tb;text-anchor:start;baseline-shift:baseline;color:#000000;fill:#ffffff;fill-opacity:1;stroke:none;stroke-width:2;marker:none;visibility:visible;display:inline;overflow:visible;enable-background:accumulate;font-family:Sans;-inkscape-font-specification:Sans"
         inkscape:connector-curvature="0" />
      <path
         id="path3794"
         d="m 103.6875,329.375 a 1.0001,1.0001 0 0 0 -0.53125,1.71875 l 0.0312,0.0312 c 0.39609,-0.54472 0.89155,-1.01175 1.4375,-1.40625 l -0.0312,-0.0312 a 1.0001,1.0001 0 0 0 -0.71875,-0.3125 1.0001,1.0001 0 0 0 -0.1875,0 z"
         style="font-size:medium;font-style:normal;font-variant:normal;font-weight:normal;font-stretch:normal;text-indent:0;text-align:start;text-decoration:none;line-height:normal;letter-spacing:normal;word-spacing:normal;text-transform:none;direction:ltr;block-progression:tb;writing-mode:lr-tb;text-anchor:start;baseline-shift:baseline;color:#000000;fill:#ffffff;fill-opacity:1;stroke:none;stroke-width:2;marker:none;visibility:visible;display:inline;overflow:visible;enable-background:accumulate;font-family:Sans;-inkscape-font-specification:Sans"
         inkscape:connector-curvature="0" />
      <path
         id="path3817"
         d="m 108.1875,326.4375 a 0.750075,0.750075 0 0 0 -0.625,0.75 l 0,1.375 c 0.25302,-0.0307 0.48869,-0.0625 0.75,-0.0625 0.2511,0 0.50652,0.003 0.75,0.0312 l 0,-1.34375 a 0.750075,0.750075 0 0 0 -0.8125,-0.75 0.750075,0.750075 0 0 0 -0.0625,0 z"
         style="font-size:medium;font-style:normal;font-variant:normal;font-weight:normal;font-stretch:normal;text-indent:0;text-align:start;text-decoration:none;line-height:normal;letter-spacing:normal;word-spacing:normal;text-transform:none;direction:ltr;block-progression:tb;writing-mode:lr-tb;text-anchor:start;baseline-shift:baseline;color:#000000;fill:#ffffff;fill-opacity:1;stroke:none;stroke-width:1.5;marker:none;visibility:visible;display:inline;overflow:visible;enable-background:accumulate;font-family:Sans;-inkscape-font-specification:Sans"
         inkscape:connector-curvature="0" />
    </g>
    <g
       transform="translate(-27.09073,0.1222606)"
       id="g3862">
      <path
         sodipodi:type="arc"
         style="fill:none;stroke:#ffffff;stroke-width:1;stroke-miterlimit:4;stroke-opacity:1;stroke-dasharray:none"
         id="path3864"
         sodipodi:cx="85"
         sodipodi:cy="355.11218"
         sodipodi:rx="5.375"
         sodipodi:ry="5.375"
         d="m 90.375,355.11218 c 0,2.96853 -2.406469,5.375 -5.375,5.375 -2.968531,0 -5.375,-2.40647 -5.375,-5.375 0,-2.96853 2.406469,-5.375 5.375,-5.375 2.968531,0 5.375,2.40647 5.375,5.375 z"
         transform="translate(23.32139,-20.264578)" />
      <path
         style="fill:none;stroke:#ffffff;stroke-width:1;stroke-linecap:round;stroke-linejoin:round;stroke-miterlimit:4;stroke-opacity:1;stroke-dasharray:none"
         d="m 106.00486,332.53107 2.31653,2.31653 1.67375,-1.67375"
         id="path3866"
         inkscape:connector-curvature="0"
         sodipodi:nodetypes="ccc"
         inkscape:transform-center-x="0.11827"
         inkscape:transform-center-y="-1.361385" />
      <path
         style="fill:none;stroke:#ffffff;stroke-width:1.5;stroke-linecap:round;stroke-linejoin:round;stroke-miterlimit:4;stroke-opacity:1;stroke-dasharray:none"
         d="m 107.0838,327.09159 2.47519,0"
         id="path3868"
         inkscape:connector-curvature="0" />
      <path
         inkscape:connector-curvature="0"
         style="font-size:medium;font-style:normal;font-variant:normal;font-weight:normal;font-stretch:normal;text-indent:0;text-align:start;text-decoration:none;line-height:normal;letter-spacing:normal;word-spacing:normal;text-transform:none;direction:ltr;block-progression:tb;writing-mode:lr-tb;text-anchor:start;baseline-shift:baseline;color:#000000;fill:#ffffff;fill-opacity:1;stroke:none;stroke-width:2;marker:none;visibility:visible;display:inline;overflow:visible;enable-background:accumulate;font-family:Sans;-inkscape-font-specification:Sans"
         d="m 112.65625,329.375 a 1.0001,1.0001 0 0 0 -0.59375,0.3125 l -0.0312,0.0312 c 0.53794,0.38989 1.01404,0.87011 1.40625,1.40625 l 0.0312,-0.0312 A 1.0001,1.0001 0 0 0 112.75,329.375 a 1.0001,1.0001 0 0 0 -0.0937,0 z"
         id="path3870" />
      <path
         inkscape:connector-curvature="0"
         style="font-size:medium;font-style:normal;font-variant:normal;font-weight:normal;font-stretch:normal;text-indent:0;text-align:start;text-decoration:none;line-height:normal;letter-spacing:normal;word-spacing:normal;text-transform:none;direction:ltr;block-progression:tb;writing-mode:lr-tb;text-anchor:start;baseline-shift:baseline;color:#000000;fill:#ffffff;fill-opacity:1;stroke:none;stroke-width:2;marker:none;visibility:visible;display:inline;overflow:visible;enable-background:accumulate;font-family:Sans;-inkscape-font-specification:Sans"
         d="m 103.6875,329.375 a 1.0001,1.0001 0 0 0 -0.53125,1.71875 l 0.0312,0.0312 c 0.39609,-0.54472 0.89155,-1.01175 1.4375,-1.40625 l -0.0312,-0.0312 a 1.0001,1.0001 0 0 0 -0.71875,-0.3125 1.0001,1.0001 0 0 0 -0.1875,0 z"
         id="path3872" />
      <path
         inkscape:connector-curvature="0"
         style="font-size:medium;font-style:normal;font-variant:normal;font-weight:normal;font-stretch:normal;text-indent:0;text-align:start;text-decoration:none;line-height:normal;letter-spacing:normal;word-spacing:normal;text-transform:none;direction:ltr;block-progression:tb;writing-mode:lr-tb;text-anchor:start;baseline-shift:baseline;color:#000000;fill:#ffffff;fill-opacity:1;stroke:none;stroke-width:1.5;marker:none;visibility:visible;display:inline;overflow:visible;enable-background:accumulate;font-family:Sans;-inkscape-font-specification:Sans"
         d="m 108.1875,326.4375 a 0.750075,0.750075 0 0 0 -0.625,0.75 l 0,1.375 c 0.25302,-0.0307 0.48869,-0.0625 0.75,-0.0625 0.2511,0 0.50652,0.003 0.75,0.0312 l 0,-1.34375 a 0.750075,0.750075 0 0 0 -0.8125,-0.75 0.750075,0.750075 0 0 0 -0.0625,0 z"
         id="path3874" />
    </g>
    <text
       sodipodi:linespacing="125%"
       id="text3932"
       y="-7.7102966"
       x="109.90203"
       style="font-size:63.14213180999999500px;font-style:normal;font-variant:normal;font-weight:normal;font-stretch:normal;text-align:start;line-height:125%;letter-spacing:0px;word-spacing:0px;text-anchor:start;fill:#ffffff;fill-opacity:1;stroke:none;font-family:Roboto Slab;-inkscape-font-specification:Roboto Slab"
       xml:space="preserve"><tspan
         y="-7.7102966"
         x="109.90203"
         id="tspan3934"
         sodipodi:role="line">TimeTrackTool</tspan></text>
    <text
       xml:space="preserve"
       style="font-size:63.14213180999999500px;font-style:normal;font-variant:normal;font-weight:normal;font-stretch:normal;text-align:start;line-height:125%;letter-spacing:0px;word-spacing:0px;text-anchor:start;fill:#001934;fill-opacity:1;stroke:none;font-family:Roboto Slab;-inkscape-font-specification:Roboto Slab"
       x="109.90203"
       y="-217.0139"
       id="text3990"
       sodipodi:linespacing="125%"
       inkscape:export-filename="C:\Users\Stephan\Desktop\TTT\ttt_logo_full.png"
       inkscape:export-xdpi="47.768448"
       inkscape:export-ydpi="47.768448"><tspan
         sodipodi:role="line"
         id="tspan3992"
         x="109.90203"
         y="-217.0139">TimeTrackTool</tspan></text>
    <g
       id="g4145">
      <path
         sodipodi:type="arc"
         style="fill:#ffffff;fill-opacity:1;stroke:none"
         id="path4121"
         sodipodi:cx="85"
         sodipodi:cy="355.11218"
         sodipodi:rx="5.375"
         sodipodi:ry="5.375"
         d="m 90.375,355.11218 c 0,2.96853 -2.406469,5.375 -5.375,5.375 -2.968531,0 -5.375,-2.40647 -5.375,-5.375 0,-2.96853 2.406469,-5.375 5.375,-5.375 2.968531,0 5.375,2.40647 5.375,5.375 z"
         transform="matrix(7.8868837,0,0,7.8868837,-631.61209,-2832.1633)" />
      <g
         style="fill:#001934;fill-opacity:1"
         id="g4123"
         transform="matrix(4.2392,0,0,4.2392,292.1472,-559.08754)">
        <path
           inkscape:connector-curvature="0"
           id="path4125"
           d="m -59.76934,118.60768 c -3.238751,0 -5.875,2.63625 -5.875,5.875 0,3.23875 2.636249,5.875 5.875,5.875 3.238751,0 5.875,-2.63625 5.875,-5.875 0,-3.23875 -2.636249,-5.875 -5.875,-5.875 z m 0,1 c 2.69831,0 4.875,2.17669 4.875,4.875 0,2.69831 -2.17669,4.875 -4.875,4.875 -2.69831,0 -4.875,-2.17669 -4.875,-4.875 0,-2.69831 2.17669,-4.875 4.875,-4.875 z"
           style="font-size:medium;font-style:normal;font-variant:normal;font-weight:normal;font-stretch:normal;text-indent:0;text-align:start;text-decoration:none;line-height:normal;letter-spacing:normal;word-spacing:normal;text-transform:none;direction:ltr;block-progression:tb;writing-mode:lr-tb;text-anchor:start;baseline-shift:baseline;color:#000000;fill:#001934;fill-opacity:1;stroke:none;stroke-width:1;marker:none;visibility:visible;display:inline;overflow:visible;enable-background:accumulate;font-family:Sans;-inkscape-font-specification:Sans" />
        <path
           inkscape:connector-curvature="0"
           id="path4127"
           d="M -62.25,121.65625 A 0.50005,0.50005 0 0 0 -62.4375,122.5 l 2.3125,2.3125 a 0.50005,0.50005 0 0 0 0.71875,0 l 1.65625,-1.65625 a 0.50005,0.50005 0 1 0 -0.6875,-0.71875 l -1.3125,1.3125 -1.96875,-1.9375 A 0.50005,0.50005 0 0 0 -62.25,121.65625 z"
           style="font-size:medium;font-style:normal;font-variant:normal;font-weight:normal;font-stretch:normal;text-indent:0;text-align:start;text-decoration:none;line-height:normal;letter-spacing:normal;word-spacing:normal;text-transform:none;direction:ltr;block-progression:tb;writing-mode:lr-tb;text-anchor:start;baseline-shift:baseline;color:#000000;fill:#001934;fill-opacity:1;stroke:none;stroke-width:1;marker:none;visibility:visible;display:inline;overflow:visible;enable-background:accumulate;font-family:Sans;-inkscape-font-specification:Sans" />
        <path
           inkscape:connector-curvature="0"
           id="path4129"
           d="m -61.15625,115.96875 a 0.75405803,0.75405803 0 1 0 0.15625,1.5 l 2.46875,0 a 0.750075,0.750075 0 1 0 0,-1.5 l -2.46875,0 a 0.750075,0.750075 0 0 0 -0.15625,0 z"
           style="font-size:medium;font-style:normal;font-variant:normal;font-weight:normal;font-stretch:normal;text-indent:0;text-align:start;text-decoration:none;line-height:normal;letter-spacing:normal;word-spacing:normal;text-transform:none;direction:ltr;block-progression:tb;writing-mode:lr-tb;text-anchor:start;baseline-shift:baseline;color:#000000;fill:#001934;fill-opacity:1;stroke:none;stroke-width:1.50000000000000000;marker:none;visibility:visible;display:inline;overflow:visible;enable-background:accumulate;font-family:Sans;-inkscape-font-specification:Sans" />
        <path
           id="path4131"
           d="m -55.43448,118.99726 a 1.0001,1.0001 0 0 0 -0.59375,0.3125 l -0.0312,0.0312 c 0.53794,0.38989 1.01404,0.87011 1.40625,1.40625 l 0.0312,-0.0312 a 1.0001,1.0001 0 0 0 -0.71875,-1.71875 1.0001,1.0001 0 0 0 -0.0937,0 z"
           style="font-size:medium;font-style:normal;font-variant:normal;font-weight:normal;font-stretch:normal;text-indent:0;text-align:start;text-decoration:none;line-height:normal;letter-spacing:normal;word-spacing:normal;text-transform:none;direction:ltr;block-progression:tb;writing-mode:lr-tb;text-anchor:start;baseline-shift:baseline;color:#000000;fill:#001934;fill-opacity:1;stroke:none;stroke-width:2;marker:none;visibility:visible;display:inline;overflow:visible;enable-background:accumulate;font-family:Sans;-inkscape-font-specification:Sans"
           inkscape:connector-curvature="0" />
        <path
           id="path4133"
           d="m -64.40323,118.99726 a 1.0001,1.0001 0 0 0 -0.53125,1.71875 l 0.0312,0.0312 c 0.39609,-0.54472 0.89155,-1.01175 1.4375,-1.40625 l -0.0312,-0.0312 a 1.0001,1.0001 0 0 0 -0.71875,-0.3125 1.0001,1.0001 0 0 0 -0.1875,0 z"
           style="font-size:medium;font-style:normal;font-variant:normal;font-weight:normal;font-stretch:normal;text-indent:0;text-align:start;text-decoration:none;line-height:normal;letter-spacing:normal;word-spacing:normal;text-transform:none;direction:ltr;block-progression:tb;writing-mode:lr-tb;text-anchor:start;baseline-shift:baseline;color:#000000;fill:#001934;fill-opacity:1;stroke:none;stroke-width:2;marker:none;visibility:visible;display:inline;overflow:visible;enable-background:accumulate;font-family:Sans;-inkscape-font-specification:Sans"
           inkscape:connector-curvature="0" />
        <path
           id="path4135"
           d="m -59.90323,116.05976 a 0.750075,0.750075 0 0 0 -0.625,0.75 l 0,1.375 c 0.25302,-0.0307 0.48869,-0.0625 0.75,-0.0625 0.2511,0 0.50652,0.003 0.75,0.0312 l 0,-1.34375 a 0.750075,0.750075 0 0 0 -0.8125,-0.75 0.750075,0.750075 0 0 0 -0.0625,0 z"
           style="font-size:medium;font-style:normal;font-variant:normal;font-weight:normal;font-stretch:normal;text-indent:0;text-align:start;text-decoration:none;line-height:normal;letter-spacing:normal;word-spacing:normal;text-transform:none;direction:ltr;block-progression:tb;writing-mode:lr-tb;text-anchor:start;baseline-shift:baseline;color:#000000;fill:#001934;fill-opacity:1;stroke:none;stroke-width:1.50000000000000000;marker:none;visibility:visible;display:inline;overflow:visible;enable-background:accumulate;font-family:Sans;-inkscape-font-specification:Sans"
           inkscape:connector-curvature="0" />
      </g>
    </g>
    <path
       sodipodi:type="arc"
       style="fill:#001934;fill-opacity:1;stroke:none"
       id="path4155"
       sodipodi:cx="85"
       sodipodi:cy="355.11218"
       sodipodi:rx="5.375"
       sodipodi:ry="5.375"
       d="m 90.375,355.11218 c 0,2.96853 -2.406469,5.375 -5.375,5.375 -2.968531,0 -5.375,-2.40647 -5.375,-5.375 0,-2.96853 2.406469,-5.375 5.375,-5.375 2.968531,0 5.375,2.40647 5.375,5.375 z"
       transform="matrix(1.8604651,0,0,1.8604651,-102.4033,-325.70396)"
       inkscape:export-filename="C:\Users\Stephan\Desktop\TTT\ttt_week.png"
       inkscape:export-xdpi="270"
       inkscape:export-ydpi="270" />
    <g
       id="g4171"
       transform="translate(14.29235,0)"
       inkscape:export-filename="C:\Users\Stephan\Desktop\TTT\ttt_week.png"
       inkscape:export-xdpi="270"
       inkscape:export-ydpi="270">
      <g
         transform="matrix(0.90163934,0,0,1,3.5464608,-0.49998629)"
         id="g4161">
        <rect
           style="fill:none;stroke:#ffffff;stroke-width:1.05313385;stroke-linecap:round;stroke-linejoin:round;stroke-opacity:1"
           id="rect4157"
           width="11.09091"
           height="10"
           x="36.486233"
           y="330.46985" />
        <rect
           y="330.46985"
           x="36.486233"
           height="3"
           width="11.09091"
           id="rect4159"
           style="fill:#ffffff;fill-opacity:1;stroke:none" />
      </g>
    </g>
    <path
       transform="matrix(1.8604651,0,0,1.8604651,-129.83744,-289.64151)"
       d="m 90.375,355.11218 c 0,2.96853 -2.406469,5.375 -5.375,5.375 -2.968531,0 -5.375,-2.40647 -5.375,-5.375 0,-2.96853 2.406469,-5.375 5.375,-5.375 2.968531,0 5.375,2.40647 5.375,5.375 z"
       sodipodi:ry="5.375"
       sodipodi:rx="5.375"
       sodipodi:cy="355.11218"
       sodipodi:cx="85"
       id="path4178"
       style="fill:#0f82ff;fill-opacity:1;stroke:none"
       sodipodi:type="arc" />
    <path
       style="fill:none;stroke:#ffffff;stroke-width:0.99999994px;stroke-linecap:round;stroke-linejoin:round;stroke-opacity:1"
       d="m 54.66031,334.46529 2.151848,0 -1.270571,3.66211"
       id="path4180"
       inkscape:connector-curvature="0"
       sodipodi:nodetypes="ccc"
       inkscape:export-filename="C:\Users\Stephan\Desktop\TTT\ttt_week.png"
       inkscape:export-xdpi="270"
       inkscape:export-ydpi="270" />
    <path
       style="font-size:medium;font-style:normal;font-variant:normal;font-weight:normal;font-stretch:normal;text-indent:0;text-align:start;text-decoration:none;line-height:normal;letter-spacing:normal;word-spacing:normal;text-transform:none;direction:ltr;block-progression:tb;writing-mode:lr-tb;text-anchor:start;baseline-shift:baseline;color:#000000;fill:#ffffff;fill-opacity:1;stroke:none;stroke-width:1;marker:none;visibility:visible;display:inline;overflow:visible;enable-background:accumulate;font-family:Sans;-inkscape-font-specification:Sans"
       d="m 28.29014,368.43556 c -2.18623,0 -3.96875,1.78252 -3.96875,3.96875 l 1,0 c 0,-1.64579 1.32296,-2.96875 2.96875,-2.96875 1.64579,0 2.96875,1.32296 2.96875,2.96875 l 1,0 c 0,-2.18623 -1.78252,-3.96875 -3.96875,-3.96875 z"
       id="path4184"
       inkscape:connector-curvature="0" />
    <path
       style="fill:none;stroke:#ffffff;stroke-width:1px;stroke-linecap:round;stroke-linejoin:round;stroke-opacity:1"
       d="m 28.302092,367.1986 0,-3.0936"
       id="path4186"
       inkscape:connector-curvature="0"
       inkscape:transform-center-y="-6.7396135" />
    <path
       inkscape:transform-center-y="-5.8366735"
       inkscape:connector-curvature="0"
       id="path4188"
       d="m 30.898499,367.89431 1.5468,-2.67914"
       style="fill:none;stroke:#ffffff;stroke-width:1px;stroke-linecap:round;stroke-linejoin:round;stroke-opacity:1"
       inkscape:transform-center-x="-3.369807" />
    <path
       inkscape:transform-center-x="-5.836675"
       style="fill:none;stroke:#ffffff;stroke-width:1px;stroke-linecap:round;stroke-linejoin:round;stroke-opacity:1"
       d="m 32.799198,369.79501 2.679138,-1.5468"
       id="path4190"
       inkscape:connector-curvature="0"
       inkscape:transform-center-y="-3.3698035" />
    <path
       inkscape:transform-center-y="-5.8366735"
       inkscape:connector-curvature="0"
       id="path4192"
       d="m 25.705689,367.89431 -1.5468,-2.67914"
       style="fill:none;stroke:#ffffff;stroke-width:1px;stroke-linecap:round;stroke-linejoin:round;stroke-opacity:1"
       inkscape:transform-center-x="3.369803" />
    <path
       inkscape:transform-center-x="5.836672"
       style="fill:none;stroke:#ffffff;stroke-width:1px;stroke-linecap:round;stroke-linejoin:round;stroke-opacity:1"
       d="m 23.804989,369.79501 -2.679138,-1.5468"
       id="path4194"
       inkscape:connector-curvature="0"
       inkscape:transform-center-y="-3.3698035" />
    <path
       style="fill:none;stroke:#ffffff;stroke-width:1px;stroke-linecap:round;stroke-linejoin:round;stroke-opacity:1"
       d="m 23.37444,373.56057 9.855305,1e-5"
       id="path4209"
       inkscape:connector-curvature="0" />
    <path
       transform="matrix(1.8604651,0,0,1.8604651,-126.53331,-325.70396)"
       d="m 90.375,355.11218 c 0,2.96853 -2.406469,5.375 -5.375,5.375 -2.968531,0 -5.375,-2.40647 -5.375,-5.375 0,-2.96853 2.406469,-5.375 5.375,-5.375 2.968531,0 5.375,2.40647 5.375,5.375 z"
       sodipodi:ry="5.375"
       sodipodi:rx="5.375"
       sodipodi:cy="355.11218"
       sodipodi:cx="85"
       id="path4213"
       style="fill:#001934;fill-opacity:1;stroke:none"
       sodipodi:type="arc"
       inkscape:export-filename="C:\Users\Stephan\Desktop\TTT\ttt_day.png"
       inkscape:export-xdpi="270"
       inkscape:export-ydpi="270" />
    <path
       sodipodi:type="arc"
       style="fill:#ffffff;fill-opacity:1;stroke:none"
       id="path4215"
       sodipodi:cx="85"
       sodipodi:cy="355.11218"
       sodipodi:rx="5.375"
       sodipodi:ry="5.375"
       d="m 90.375,355.11218 c 0,2.96853 -2.406469,5.375 -5.375,5.375 -2.968531,0 -5.375,-2.40647 -5.375,-5.375 0,-2.96853 2.406469,-5.375 5.375,-5.375 2.968531,0 5.375,2.40647 5.375,5.375 z"
       transform="matrix(0.49196045,0,0,0.49196045,-10.210419,160.26871)"
       inkscape:export-filename="C:\Users\Stephan\Desktop\TTT\ttt_day.png"
       inkscape:export-xdpi="270"
       inkscape:export-ydpi="270" />
    <g
       id="g4235"
       transform="matrix(0.83956631,0,0,0.83956631,8.0447001,53.740449)"
       inkscape:export-filename="C:\Users\Stephan\Desktop\TTT\ttt_day.png"
       inkscape:export-xdpi="270"
       inkscape:export-ydpi="270">
      <path
         transform="translate(100.32139,325.65436)"
         inkscape:transform-center-y="-5.4689001"
         inkscape:connector-curvature="0"
         id="path4217"
         d="m -72.257474,5.0398449 0,-2.3864854"
         style="fill:none;stroke:#ffffff;stroke-width:1.19109118px;stroke-linecap:round;stroke-linejoin:round;stroke-opacity:1" />
      <path
         inkscape:transform-center-x="-3.867096"
         style="fill:none;stroke:#ffffff;stroke-width:1.19109118px;stroke-linecap:round;stroke-linejoin:round;stroke-opacity:1"
         d="m 31.087262,331.94652 1.6875,-1.6875"
         id="path4219"
         inkscape:connector-curvature="0"
         inkscape:transform-center-y="-3.8670923" />
      <path
         inkscape:connector-curvature="0"
         id="path4221"
         d="m 32.33957,334.96986 2.386486,0"
         style="fill:none;stroke:#ffffff;stroke-width:1.19109118px;stroke-linecap:round;stroke-linejoin:round;stroke-opacity:1"
         inkscape:transform-center-x="-5.468897" />
      <path
         inkscape:transform-center-y="3.86709"
         inkscape:transform-center-x="-3.867094"
         style="fill:none;stroke:#ffffff;stroke-width:1.19109118px;stroke-linecap:round;stroke-linejoin:round;stroke-opacity:1"
         d="m 31.08726,337.9932 1.6875,1.6875"
         id="path4223"
         inkscape:connector-curvature="0" />
      <path
         style="fill:none;stroke:#ffffff;stroke-width:1.19109118px;stroke-linecap:round;stroke-linejoin:round;stroke-opacity:1"
         d="m 28.063916,339.24552 0,2.38648"
         id="path4227"
         inkscape:connector-curvature="0"
         inkscape:transform-center-y="5.4689023" />
      <path
         inkscape:transform-center-y="3.8670923"
         inkscape:connector-curvature="0"
         id="path4229"
         d="m 25.04057,337.9932 -1.6875,1.6875"
         style="fill:none;stroke:#ffffff;stroke-width:1.19109118px;stroke-linecap:round;stroke-linejoin:round;stroke-opacity:1"
         inkscape:transform-center-x="3.867096" />
      <path
         inkscape:transform-center-x="5.468897"
         style="fill:none;stroke:#ffffff;stroke-width:1.19109118px;stroke-linecap:round;stroke-linejoin:round;stroke-opacity:1"
         d="m 23.788262,334.96986 -2.386486,0"
         id="path4231"
         inkscape:connector-curvature="0" />
      <path
         inkscape:connector-curvature="0"
         id="path4233"
         d="m 25.040572,331.94652 -1.6875,-1.6875"
         style="fill:none;stroke:#ffffff;stroke-width:1.19109118px;stroke-linecap:round;stroke-linejoin:round;stroke-opacity:1"
         inkscape:transform-center-x="3.867094"
         inkscape:transform-center-y="-3.86709" />
    </g>
    <path
       transform="matrix(1.8604651,0,0,1.8604651,-150.48656,-325.70396)"
       d="m 90.375,355.11218 c 0,2.96853 -2.406469,5.375 -5.375,5.375 -2.968531,0 -5.375,-2.40647 -5.375,-5.375 0,-2.96853 2.406469,-5.375 5.375,-5.375 2.968531,0 5.375,2.40647 5.375,5.375 z"
       sodipodi:ry="5.375"
       sodipodi:rx="5.375"
       sodipodi:cy="355.11218"
       sodipodi:cx="85"
       id="path4247"
       style="fill:#001934;fill-opacity:1;stroke:none"
       sodipodi:type="arc"
       inkscape:export-filename="C:\Users\Stephan\Desktop\TTT\ttt_project.png"
       inkscape:export-xdpi="270"
       inkscape:export-ydpi="270" />
    <g
       id="g4266"
       transform="translate(8.6532594e-8,-1.1667725)"
       inkscape:export-filename="C:\Users\Stephan\Desktop\TTT\ttt_project.png"
       inkscape:export-xdpi="270"
       inkscape:export-ydpi="270">
      <rect
         style="fill:none;stroke:#ffffff;stroke-width:1;stroke-linecap:round;stroke-linejoin:round;stroke-opacity:1"
         id="rect4253"
         width="10.000001"
         height="6.6854372"
         x="2.6529729"
         y="333.28442" />
      <path
         sodipodi:nodetypes="cccc"
         inkscape:connector-curvature="0"
         id="path4262"
         d="m 6.10264,332.15436 0,-1 3.03125,0 0,1"
         style="fill:none;stroke:#ffffff;stroke-width:1px;stroke-linecap:butt;stroke-linejoin:round;stroke-opacity:1" />
    </g>
    <g
       inkscape:export-ydpi="47.768448"
       inkscape:export-xdpi="47.768448"
       inkscape:export-filename="C:\Users\Stephan\Desktop\TTT\ttt_logo_full_bright.png"
       transform="translate(-3e-6,-683.24685)"
       id="g3822">
      <path
         sodipodi:type="arc"
         style="fill:#0f82ff;fill-opacity:1;stroke:none"
         id="path3824"
         sodipodi:cx="85"
         sodipodi:cy="355.11218"
         sodipodi:rx="5.375"
         sodipodi:ry="5.375"
         d="m 90.375,355.11218 c 0,2.96853 -2.406469,5.375 -5.375,5.375 -2.968531,0 -5.375,-2.40647 -5.375,-5.375 0,-2.96853 2.406469,-5.375 5.375,-5.375 2.968531,0 5.375,2.40647 5.375,5.375 z"
         transform="matrix(7.8868837,0,0,7.8868837,-631.61209,-2631.1633)" />
      <g
         id="g3826"
         transform="matrix(4.2392,0,0,4.2392,292.1472,-358.08751)">
        <path
           inkscape:connector-curvature="0"
           id="path3828"
           d="m -59.76934,118.60768 c -3.238751,0 -5.875,2.63625 -5.875,5.875 0,3.23875 2.636249,5.875 5.875,5.875 3.238751,0 5.875,-2.63625 5.875,-5.875 0,-3.23875 -2.636249,-5.875 -5.875,-5.875 z m 0,1 c 2.69831,0 4.875,2.17669 4.875,4.875 0,2.69831 -2.17669,4.875 -4.875,4.875 -2.69831,0 -4.875,-2.17669 -4.875,-4.875 0,-2.69831 2.17669,-4.875 4.875,-4.875 z"
           style="font-size:medium;font-style:normal;font-variant:normal;font-weight:normal;font-stretch:normal;text-indent:0;text-align:start;text-decoration:none;line-height:normal;letter-spacing:normal;word-spacing:normal;text-transform:none;direction:ltr;block-progression:tb;writing-mode:lr-tb;text-anchor:start;baseline-shift:baseline;color:#000000;fill:#ffffff;fill-opacity:1;stroke:none;stroke-width:1;marker:none;visibility:visible;display:inline;overflow:visible;enable-background:accumulate;font-family:Sans;-inkscape-font-specification:Sans" />
        <path
           inkscape:connector-curvature="0"
           id="path3830"
           d="M -62.25,121.65625 A 0.50005,0.50005 0 0 0 -62.4375,122.5 l 2.3125,2.3125 a 0.50005,0.50005 0 0 0 0.71875,0 l 1.65625,-1.65625 a 0.50005,0.50005 0 1 0 -0.6875,-0.71875 l -1.3125,1.3125 -1.96875,-1.9375 A 0.50005,0.50005 0 0 0 -62.25,121.65625 z"
           style="font-size:medium;font-style:normal;font-variant:normal;font-weight:normal;font-stretch:normal;text-indent:0;text-align:start;text-decoration:none;line-height:normal;letter-spacing:normal;word-spacing:normal;text-transform:none;direction:ltr;block-progression:tb;writing-mode:lr-tb;text-anchor:start;baseline-shift:baseline;color:#000000;fill:#ffffff;fill-opacity:1;stroke:none;stroke-width:1;marker:none;visibility:visible;display:inline;overflow:visible;enable-background:accumulate;font-family:Sans;-inkscape-font-specification:Sans" />
        <path
           inkscape:connector-curvature="0"
           id="path3832"
           d="m -61.15625,115.96875 a 0.75405803,0.75405803 0 1 0 0.15625,1.5 l 2.46875,0 a 0.750075,0.750075 0 1 0 0,-1.5 l -2.46875,0 a 0.750075,0.750075 0 0 0 -0.15625,0 z"
           style="font-size:medium;font-style:normal;font-variant:normal;font-weight:normal;font-stretch:normal;text-indent:0;text-align:start;text-decoration:none;line-height:normal;letter-spacing:normal;word-spacing:normal;text-transform:none;direction:ltr;block-progression:tb;writing-mode:lr-tb;text-anchor:start;baseline-shift:baseline;color:#000000;fill:#ffffff;fill-opacity:1;stroke:none;stroke-width:1.5;marker:none;visibility:visible;display:inline;overflow:visible;enable-background:accumulate;font-family:Sans;-inkscape-font-specification:Sans" />
        <path
           id="path3834"
           d="m -55.43448,118.99726 a 1.0001,1.0001 0 0 0 -0.59375,0.3125 l -0.0312,0.0312 c 0.53794,0.38989 1.01404,0.87011 1.40625,1.40625 l 0.0312,-0.0312 a 1.0001,1.0001 0 0 0 -0.71875,-1.71875 1.0001,1.0001 0 0 0 -0.0937,0 z"
           style="font-size:medium;font-style:normal;font-variant:normal;font-weight:normal;font-stretch:normal;text-indent:0;text-align:start;text-decoration:none;line-height:normal;letter-spacing:normal;word-spacing:normal;text-transform:none;direction:ltr;block-progression:tb;writing-mode:lr-tb;text-anchor:start;baseline-shift:baseline;color:#000000;fill:#ffffff;fill-opacity:1;stroke:none;stroke-width:2;marker:none;visibility:visible;display:inline;overflow:visible;enable-background:accumulate;font-family:Sans;-inkscape-font-specification:Sans"
           inkscape:connector-curvature="0" />
        <path
           id="path3836"
           d="m -64.40323,118.99726 a 1.0001,1.0001 0 0 0 -0.53125,1.71875 l 0.0312,0.0312 c 0.39609,-0.54472 0.89155,-1.01175 1.4375,-1.40625 l -0.0312,-0.0312 a 1.0001,1.0001 0 0 0 -0.71875,-0.3125 1.0001,1.0001 0 0 0 -0.1875,0 z"
           style="font-size:medium;font-style:normal;font-variant:normal;font-weight:normal;font-stretch:normal;text-indent:0;text-align:start;text-decoration:none;line-height:normal;letter-spacing:normal;word-spacing:normal;text-transform:none;direction:ltr;block-progression:tb;writing-mode:lr-tb;text-anchor:start;baseline-shift:baseline;color:#000000;fill:#ffffff;fill-opacity:1;stroke:none;stroke-width:2;marker:none;visibility:visible;display:inline;overflow:visible;enable-background:accumulate;font-family:Sans;-inkscape-font-specification:Sans"
           inkscape:connector-curvature="0" />
        <path
           id="path3838"
           d="m -59.90323,116.05976 a 0.750075,0.750075 0 0 0 -0.625,0.75 l 0,1.375 c 0.25302,-0.0307 0.48869,-0.0625 0.75,-0.0625 0.2511,0 0.50652,0.003 0.75,0.0312 l 0,-1.34375 a 0.750075,0.750075 0 0 0 -0.8125,-0.75 0.750075,0.750075 0 0 0 -0.0625,0 z"
           style="font-size:medium;font-style:normal;font-variant:normal;font-weight:normal;font-stretch:normal;text-indent:0;text-align:start;text-decoration:none;line-height:normal;letter-spacing:normal;word-spacing:normal;text-transform:none;direction:ltr;block-progression:tb;writing-mode:lr-tb;text-anchor:start;baseline-shift:baseline;color:#000000;fill:#ffffff;fill-opacity:1;stroke:none;stroke-width:1.5;marker:none;visibility:visible;display:inline;overflow:visible;enable-background:accumulate;font-family:Sans;-inkscape-font-specification:Sans"
           inkscape:connector-curvature="0" />
      </g>
    </g>
    <text
       inkscape:export-ydpi="47.768448"
       inkscape:export-xdpi="47.768448"
       inkscape:export-filename="C:\Users\Stephan\Desktop\TTT\ttt_logo_full_bright.png"
       sodipodi:linespacing="125%"
       id="text3840"
       y="-489.95712"
       x="109.90203"
       style="font-size:63.14213181000000200px;font-style:normal;font-variant:normal;font-weight:normal;font-stretch:normal;text-align:start;line-height:125%;letter-spacing:0px;word-spacing:0px;text-anchor:start;fill:#0f82ff;fill-opacity:1;stroke:none;font-family:Roboto Slab;-inkscape-font-specification:Roboto Slab"
       xml:space="preserve"><tspan
         y="-489.95712"
         x="109.90203"
         id="tspan3842"
         sodipodi:role="line">TimeTrackTool</tspan></text>
  </g>
</svg>
